<svg xmlns="http://www.w3.org/2000/svg" viewBox="0 0 1200 640">
  <rect width="1200" height="640" fill="#f5f3ef"/>
  <g fill="none" stroke="#242424" stroke-width="7" stroke-linecap="round" stroke-linejoin="round">
    <path d="M110 520h470M150 500V135"/>
    <path d="M185 438l82-85 84 30 89-132 105-73"/>
    <circle cx="185" cy="438" r="14" fill="#8d664d"/><circle cx="267" cy="353" r="14" fill="#8d664d"/><circle cx="351" cy="383" r="14" fill="#8d664d"/><circle cx="440" cy="251" r="14" fill="#8d664d"/><circle cx="545" cy="178" r="14" fill="#8d664d"/>
    <path d="M690 512h390M720 512v-92h72v92M820 512V318h72v194M920 512V226h72v286M1020 512V372h60v140"/>
    <path d="M665 220c105-145 285-145 415 0"/>
  </g>
  <text x="690" y="145" font-family="Georgia,serif" font-size="48" fill="#242424">x̄ · s² · χ²</text>
</svg>
